<svg xmlns="http://www.w3.org/2000/svg" width="68.948" height="73.941" viewBox="0 0 68.948 73.941">
  <g id="Group_81" data-name="Group 81" transform="translate(1126.42 84.762) rotate(81)" opacity="0.2">
    <path id="Path_231" data-name="Path 231" d="M5261.432,4232.721l20.258,16.394,12.2-9.76Z" transform="translate(-5489.934 -3193.118)" fill="#9abbff"/>
    <path id="Path_232" data-name="Path 232" d="M5196.383,4257.508l12.177,1.629,9.8-26.417Z" transform="translate(-5446.858 -3193.118)" fill="#9abbff"/>
    <path id="Path_233" data-name="Path 233" d="M5242.228,4232.721l-9.8,26.417,30.054-10.023Z" transform="translate(-5470.73 -3193.118)" fill="#6899fe"/>
    <path id="Path_234" data-name="Path 234" d="M5196.383,4306.1l10.48,31.422,1.7-29.793Z" transform="translate(-5446.858 -3241.711)" fill="#c5d8ff"/>
    <path id="Path_235" data-name="Path 235" d="M5321.4,4262.12l22.678,21.665-10.481-31.424Z" transform="translate(-5529.647 -3206.124)" fill="#c5d8ff"/>
    <path id="Path_236" data-name="Path 236" d="M5227.408,4393.364l32.455,6.637-4.7-9.575Z" transform="translate(-5467.404 -3297.551)" fill="#c5d8ff"/>
    <path id="Path_237" data-name="Path 237" d="M5309.561,4360.6l4.7,9.575,21.974-24.789Z" transform="translate(-5521.805 -3267.727)" fill="#9abbff"/>
    <path id="Path_238" data-name="Path 238" d="M5232.432,4291.275l26.054,26.855,4-36.879Z" transform="translate(-5470.73 -3225.256)" fill="#3a7bff"/>
    <path id="Path_239" data-name="Path 239" d="M5309.561,4318.131l26.678-15.214-22.678-21.665Z" transform="translate(-5521.805 -3225.256)" fill="#6899fe"/>
    <path id="Path_240" data-name="Path 240" d="M5229.1,4310.925l-1.7,29.793,27.75-2.937Z" transform="translate(-5467.404 -3244.905)" fill="#6899fe"/>
  </g>
</svg>
