<svg xmlns="http://www.w3.org/2000/svg" width="151.888" height="168.171" viewBox="0 0 151.888 168.171">
  <g id="Group_79" data-name="Group 79" transform="translate(951.943 -604.974) rotate(42)" opacity="0.2">
    <path id="Path_231" data-name="Path 231" d="M5261.432,4232.721l37.8,30.586,22.755-18.208Z" transform="translate(-5470.911 -3193.118)" fill="#9abbff"/>
    <path id="Path_232" data-name="Path 232" d="M5196.383,4278.968l22.719,3.04,18.277-49.287Z" transform="translate(-5446.858 -3193.118)" fill="#9abbff"/>
    <path id="Path_233" data-name="Path 233" d="M5250.708,4232.721l-18.277,49.287,56.073-18.7Z" transform="translate(-5460.188 -3193.118)" fill="#6899fe"/>
    <path id="Path_234" data-name="Path 234" d="M5196.383,4306.1l19.553,58.626,3.166-55.586Z" transform="translate(-5446.858 -3220.252)" fill="#c5d8ff"/>
    <path id="Path_235" data-name="Path 235" d="M5321.4,4270.569l42.311,40.421-19.555-58.629Z" transform="translate(-5493.086 -3200.381)" fill="#c5d8ff"/>
    <path id="Path_236" data-name="Path 236" d="M5227.408,4395.908l60.552,12.382-8.776-17.864Z" transform="translate(-5458.331 -3251.432)" fill="#c5d8ff"/>
    <path id="Path_237" data-name="Path 237" d="M5309.561,4373.772l8.776,17.864,41-46.249Z" transform="translate(-5488.708 -3234.778)" fill="#9abbff"/>
    <path id="Path_238" data-name="Path 238" d="M5232.432,4299.953l48.609,50.1,7.463-68.805Z" transform="translate(-5460.188 -3211.063)" fill="#3a7bff"/>
    <path id="Path_239" data-name="Path 239" d="M5309.561,4350.057l49.774-28.384-42.311-40.421Z" transform="translate(-5488.708 -3211.063)" fill="#6899fe"/>
    <path id="Path_240" data-name="Path 240" d="M5230.574,4310.925l-3.166,55.586,51.775-5.482Z" transform="translate(-5458.331 -3222.035)" fill="#6899fe"/>
  </g>
</svg>
