<svg xmlns="http://www.w3.org/2000/svg" width="38.416" height="42.225" viewBox="0 0 38.416 42.225">
  <g id="Group_82" data-name="Group 82" transform="translate(1098.84 -45.78) rotate(74)" opacity="0.2">
    <path id="Path_231" data-name="Path 231" d="M5261.432,4232.721l10.729,8.684,6.461-5.169Z" transform="translate(-5500.269 -3193.118)" fill="#9abbff"/>
    <path id="Path_232" data-name="Path 232" d="M5196.383,4245.85l6.45.863,5.188-13.992Z" transform="translate(-5446.858 -3193.118)" fill="#9abbff"/>
    <path id="Path_233" data-name="Path 233" d="M5237.621,4232.721l-5.189,13.992,15.919-5.309Z" transform="translate(-5476.458 -3193.118)" fill="#6899fe"/>
    <path id="Path_234" data-name="Path 234" d="M5196.383,4306.1l5.551,16.644.9-15.78Z" transform="translate(-5446.858 -3253.37)" fill="#c5d8ff"/>
    <path id="Path_235" data-name="Path 235" d="M5321.4,4257.53l12.012,11.476-5.552-16.645Z" transform="translate(-5549.509 -3209.245)" fill="#c5d8ff"/>
    <path id="Path_236" data-name="Path 236" d="M5227.408,4391.982l17.19,3.516-2.491-5.072Z" transform="translate(-5472.333 -3322.606)" fill="#c5d8ff"/>
    <path id="Path_237" data-name="Path 237" d="M5309.561,4353.446l2.492,5.072,11.639-13.13Z" transform="translate(-5539.786 -3285.627)" fill="#9abbff"/>
    <path id="Path_238" data-name="Path 238" d="M5232.432,4286.562l13.8,14.225,2.119-19.534Z" transform="translate(-5476.458 -3232.966)" fill="#3a7bff"/>
    <path id="Path_239" data-name="Path 239" d="M5309.561,4300.786l14.131-8.059-12.012-11.476Z" transform="translate(-5539.786 -3232.966)" fill="#6899fe"/>
    <path id="Path_240" data-name="Path 240" d="M5228.307,4310.925l-.9,15.78,14.7-1.556Z" transform="translate(-5472.333 -3257.33)" fill="#6899fe"/>
  </g>
</svg>
