<svg xmlns="http://www.w3.org/2000/svg" width="111.076" height="45.542" viewBox="0 0 111.076 45.542">
  <g id="Group_5" data-name="Group 5" transform="translate(2847.056 -437.458)">
    <path id="Path_2" data-name="Path 2" d="M-1670.7,1505.627a4.288,4.288,0,0,1-1.783-1.67,4.848,4.848,0,0,1-.635-2.5v-4.1a4.761,4.761,0,0,1,.635-2.475,4.31,4.31,0,0,1,1.783-1.66,5.769,5.769,0,0,1,2.665-.588,6.017,6.017,0,0,1,2.665.56,4.247,4.247,0,0,1,1.783,1.575,4.323,4.323,0,0,1,.635,2.343.19.19,0,0,1-.066.152.24.24,0,0,1-.161.057l-2.694.171c-.152,0-.228-.069-.228-.209a1.924,1.924,0,0,0-.531-1.423,1.9,1.9,0,0,0-1.4-.531,1.879,1.879,0,0,0-1.4.541,1.929,1.929,0,0,0-.531,1.413v4.306a1.9,1.9,0,0,0,.531,1.4,1.9,1.9,0,0,0,1.4.531,1.9,1.9,0,0,0,1.4-.531,1.9,1.9,0,0,0,.531-1.4q0-.209.228-.209l2.694.133a.24.24,0,0,1,.161.057.171.171,0,0,1,.066.133,4.4,4.4,0,0,1-.635,2.371,4.22,4.22,0,0,1-1.783,1.584,6.015,6.015,0,0,1-2.665.559A5.766,5.766,0,0,1-1670.7,1505.627Z" transform="translate(-1121.93 -1027.401)" fill="#413b83"/>
    <path id="Path_3" data-name="Path 3" d="M-1631.5,1505.656a4.435,4.435,0,0,1-1.812-1.736,5.11,5.11,0,0,1-.645-2.6v-3.794a4.983,4.983,0,0,1,.645-2.551,4.455,4.455,0,0,1,1.812-1.726,5.7,5.7,0,0,1,2.7-.617,5.761,5.761,0,0,1,2.713.617,4.442,4.442,0,0,1,1.821,1.726,4.986,4.986,0,0,1,.645,2.551v3.794a5.113,5.113,0,0,1-.645,2.6,4.422,4.422,0,0,1-1.821,1.736,5.761,5.761,0,0,1-2.713.616A5.7,5.7,0,0,1-1631.5,1505.656Zm4.173-2.665a2.189,2.189,0,0,0,.56-1.574v-3.927a2.2,2.2,0,0,0-.56-1.565,1.919,1.919,0,0,0-1.47-.6,1.9,1.9,0,0,0-1.451.6,2.2,2.2,0,0,0-.56,1.565v3.927a2.188,2.188,0,0,0,.56,1.574,1.912,1.912,0,0,0,1.451.588A1.935,1.935,0,0,0-1627.322,1502.99Z" transform="translate(-1149.241 -1027.401)" fill="#413b83"/>
    <path id="Path_4" data-name="Path 4" d="M-1583.979,1493.135h2.675a.219.219,0,0,1,.161.066.219.219,0,0,1,.067.161v12.823a.219.219,0,0,1-.067.161.218.218,0,0,1-.161.066H-1584a.218.218,0,0,1-.161-.066.218.218,0,0,1-.066-.161v-7.626c0-.051-.013-.076-.038-.076s-.051.019-.076.057l-1.632,2.618a.272.272,0,0,1-.266.152h-1.347a.271.271,0,0,1-.266-.152l-1.65-2.637c-.026-.038-.051-.057-.076-.057s-.038.026-.038.076v7.645a.22.22,0,0,1-.066.161.219.219,0,0,1-.161.066h-2.694a.218.218,0,0,1-.161-.066.218.218,0,0,1-.066-.161v-12.823a.219.219,0,0,1,.066-.161.219.219,0,0,1,.161-.066h2.675a.3.3,0,0,1,.266.152l2.637,4.135q.057.114.114,0l2.6-4.135A.271.271,0,0,1-1583.979,1493.135Z" transform="translate(-1177.964 -1027.751)" fill="#413b83"/>
    <path id="Path_5" data-name="Path 5" d="M-1536.988,1495.762a.22.22,0,0,1-.161.066h-5.956a.084.084,0,0,0-.095.095v2.333a.084.084,0,0,0,.095.095h3.813a.221.221,0,0,1,.161.066.221.221,0,0,1,.066.161v2.22a.219.219,0,0,1-.066.161.22.22,0,0,1-.161.067h-3.813a.084.084,0,0,0-.095.095v2.5a.084.084,0,0,0,.095.095h5.956a.22.22,0,0,1,.161.067.22.22,0,0,1,.066.161v2.238a.22.22,0,0,1-.066.161.219.219,0,0,1-.161.066h-8.973a.218.218,0,0,1-.161-.066.219.219,0,0,1-.067-.161v-12.823a.219.219,0,0,1,.067-.161.219.219,0,0,1,.161-.066h8.973a.22.22,0,0,1,.161.066.22.22,0,0,1,.066.161v2.238A.22.22,0,0,1-1536.988,1495.762Z" transform="translate(-1210.327 -1027.751)" fill="#413b83"/>
    <path id="Path_6" data-name="Path 6" d="M-1501.815,1493.2a.221.221,0,0,1,.066.161v2.257a.22.22,0,0,1-.066.161.22.22,0,0,1-.161.067h-3.32a.084.084,0,0,0-.1.095v10.244a.221.221,0,0,1-.066.161.219.219,0,0,1-.161.066h-2.694a.218.218,0,0,1-.161-.066.218.218,0,0,1-.066-.161v-10.244a.084.084,0,0,0-.1-.095h-3.206a.219.219,0,0,1-.161-.067.218.218,0,0,1-.066-.161v-2.257a.219.219,0,0,1,.066-.161.219.219,0,0,1,.161-.066h9.864A.22.22,0,0,1-1501.815,1493.2Z" transform="translate(-1234.232 -1027.751)" fill="#413b83"/>
  </g>
  <path id="Path_1" data-name="Path 1" d="M-1805.193,1423.1l-.008,0-20.705-13.983,3.751,7.784-22.782-16.032,12.713,18.653.019.058-7.548-4.183,16.793,25.078a12.7,12.7,0,0,0,10.752,5.935A12.714,12.714,0,0,0-1799.5,1433.7,12.7,12.7,0,0,0-1805.193,1423.1Zm-7.016,19.076c-3.648-.007-6.338-2.333-7.949-5.54h-.006l-5.779-8.245,7.5,3.708-9.4-14.2,16.545,11.889-3.761-7.544,1.413.309,5.944,3.979v0a8.48,8.48,0,0,1,3.962,7.166A8.488,8.488,0,0,1-1812.209,1442.179Z" transform="translate(1844.938 -1400.875)" fill="#5ad9b9"/>
</svg>
