<svg xmlns="http://www.w3.org/2000/svg" width="82.325" height="82.508" viewBox="0 0 82.325 82.508">
  <path id="Path_243" data-name="Path 243" d="M-1772.933,1441.146l-.015,0-37.511-25.332,6.8,14.1-41.275-29.045,23.032,33.794.034.106-13.675-7.577,30.424,45.433a23.006,23.006,0,0,0,19.479,10.753,23.034,23.034,0,0,0,23.031-23.033A23.009,23.009,0,0,0-1772.933,1441.146Zm-12.711,34.56c-6.608-.013-11.482-4.227-14.4-10.038h-.012l-10.469-14.938,13.594,6.718-17.023-25.728,29.975,21.539-6.814-13.668,2.56.56,10.769,7.209,0,.005a15.363,15.363,0,0,1,7.177,12.983A15.378,15.378,0,0,1-1785.644,1475.706Z" transform="translate(1844.938 -1400.875)" fill="#5ad9b9"/>
</svg>
